<svg height="478pt" viewBox="0 -23 478.42541 478" width="478pt" xmlns="http://www.w3.org/2000/svg" xmlns:xlink="http://www.w3.org/1999/xlink"><linearGradient id="a"><stop offset="0" stop-color="#20d6de"/><stop offset="1" stop-color="#5e309d"/></linearGradient><linearGradient id="b" gradientUnits="userSpaceOnUse" x1="-65.932555" x2="510.955445" xlink:href="#a" y1="216.210997" y2="216.210997"/><linearGradient id="c" gradientUnits="userSpaceOnUse" x1="-65.932555" x2="510.955445" xlink:href="#a" y1="272.210997" y2="272.210997"/><linearGradient id="d" gradientUnits="userSpaceOnUse" x1="-65.932555" x2="510.955445" xlink:href="#a" y1="296.210997" y2="296.210997"/><path d="m340.386719 160.386719 3.359375 15.648437c42.867187-9.191406 107.625-13.816406 117.335937 4.664063 2.617188 4.984375 4 20-31.015625 56.328125v-36.816406c0-4.417969-3.582031-8-8-8h-132.6875l82.34375-82.34375c3.125-3.125 3.125-8.1875 0-11.3125l-96-96c-2.289062-2.285157-5.726562-2.972657-8.714844-1.734376-2.992187 1.238282-4.941406 4.15625-4.941406 7.390626v55.496093c-18.71875-.464843-62.726562 1.871094-96 31.457031-24.957031 22.199219-38.191406 54.902344-39.695312 97.046876h-72.304688c-4.417968 0-8 3.582031-8 8v88.976562c-14.511718 13-57.808594 55.152344-43.039062 83.199219 4.640625 8.785156 14.617187 17.6875 43.039062 19.503906v32.320313c0 4.417968 3.582032 8 8 8h368c4.417969 0 8-3.582032 8-8v-164.609376c41.042969-39.300781 55.441406-66.804687 45.167969-86.351562-3.285156-6.261719-25.320313-36.34375-134.847656-12.863281zm-294.320313 215.578125c-20.09375-1.457032-26.757812-6.953125-28.871094-10.953125-5.96875-11.359375 10.703126-34.953125 28.871094-53.601563zm130.535156-268.761719c37.019532-33.007813 92-27.105469 92.546876-27.046875 2.265624.261719 4.535156-.457031 6.238281-1.972656 1.703125-1.519532 2.679687-3.691406 2.679687-5.972656v-44.6875l76.6875 76.6875-76.6875 76.6875v-44.6875c0-4.417969-3.582031-8-8-8-65.710937 0-106.222656 28.472656-126.613281 48.519531 2.054687-26.480469 13.867187-51.257813 33.148437-69.527344zm85.464844 37.167969v47.839844h-111.199218c29.253906-30.0625 69.257812-47.273438 111.199218-47.839844zm134.488282 63.839844-158.488282 110.257812-158.488281-110.257812zm-334.488282 7.3125 138.570313 96.398437-83.203125 58.191406c-18.289063 3.332031-36.789063 5.382813-55.367188 6.136719zm0 176.6875c7.761719-.175782 16.5625-.800782 26.480469-1.847657l-26.480469 18.488281zm17.394532 24 44.253906-30.960938c25.152344-4.390625 55.511718-11.054688 92.375-20.710938l-4.046875-15.488281c-20.75 5.441407-39.273438 9.871094-55.863281 13.488281l58.449218-40.878906 18.871094 13.117188c2.746094 1.910156 6.390625 1.910156 9.136719 0l18.871093-13.117188 135.167969 94.550782zm334.605468-7.359376-138.566406-96.929687 138.566406-96.398437zm0 0" fill="url(#b)"/><path d="m78.066406 264.210938h16v16h-16zm0 0" fill="url(#c)"/><path d="m110.066406 288.210938h16v16h-16zm0 0" fill="url(#d)"/></svg>