<svg height="479pt" viewBox="0 -1 479.416 479" width="479pt" xmlns="http://www.w3.org/2000/svg" xmlns:xlink="http://www.w3.org/1999/xlink"><linearGradient id="a"><stop offset="0" stop-color="#4761ac"/><stop offset="1" stop-color="#54c2ef"/></linearGradient><linearGradient id="b" gradientUnits="userSpaceOnUse" x1="16" x2="489.688" xlink:href="#a" y1="239.132186" y2="239.132186"/><linearGradient id="c" gradientUnits="userSpaceOnUse" x1="16" x2="489.688" xlink:href="#a" y1="470.092186" y2="470.092186"/><linearGradient id="d" gradientUnits="userSpaceOnUse" x1="16" x2="489.688" xlink:href="#a" y1="170.092186" y2="170.092186"/><linearGradient id="e" gradientUnits="userSpaceOnUse" x1="16" x2="489.688" xlink:href="#a" y1="174.092186" y2="174.092186"/><path d="m133.65625 32.4375c-.550781-.554688-28.320312-30.601562-53.136719-32.183594-14.679687-.628906-28.847656 5.453125-38.503906 16.527344l-24 24c-11.507813 10.757812-17.476563 26.183594-16.207031 41.886719 2.878906 26.992187 28.617187 46.398437 33.054687 49.601562l287.480469 287.480469c.789062.773438 1.726562 1.378906 2.761719 1.773438l103.863281 40.570312h-356.96875c-4.417969 0-8 3.582031-8 8s3.582031 8 8 8h399.464844c1.050781-.003906 2.089844-.214844 3.0625-.617188 1.007812-.425781 1.917968-1.054687 2.671875-1.847656.601562-.632812 1.089843-1.359375 1.449219-2.152344.109374-.246093.203124-.5.28125-.761718.246093-.691406.394531-1.417969.4375-2.152344 0-.160156.046874-.621094.046874-.703125-.011718-.898437-.179687-1.792969-.484374-2.640625l-55.457032-144c-.5-.992188-1.109375-1.925781-1.816406-2.78125zm-115.945312 48.46875c-.710938-10.941406 3.621093-21.609375 11.761718-28.957031l24-24c6.023438-7.152344 14.785156-11.433594 24.128906-11.792969.597657 0 1.207032 0 1.824219.0625 15.789063.984375 30.175781 14.328125 37.160157 21.945312l-77.234376 77.265626c-7.351562-6.289063-20.039062-19.226563-21.640624-34.523438zm110.289062-31.503906 20.6875 20.691406-76.6875 76.6875-20.6875-20.6875zm-44.6875 108.691406 76.6875-76.691406 20.6875 20.691406-76.6875 76.6875zm290.152344 170.269531 36.800781 5.015625 21.207031 55.113282-41.265625 41.265624-55.007812-21.433593-5.359375-36.230469 35.785156.207031c2.125-.058593 4.152344-.890625 5.703125-2.34375 1.511719-1.511719 2.355469-3.566406 2.34375-5.703125zm33.015625 107.777344 31.28125-31.28125 19.71875 51.199219zm-40-124.871094c-2.300781-.3125-4.621094.390625-6.363281 1.925781-1.742188 1.535157-2.730469 3.75-2.710938 6.074219l.195312 36.984375-37.015624-.21875c-2.34375-.042968-4.578126.972656-6.089844 2.761719-1.527344 1.757813-2.210938 4.09375-1.871094 6.398437l3.871094 26.089844-201.183594-201.191406 16.6875-16.691406 166.34375 166.347656c3.140625 3.03125 8.128906 2.988281 11.214844-.097656 3.085937-3.085938 3.128906-8.078125.097656-11.214844l-166.34375-166.34375 20.6875-20.691406 118.34375 118.347656c3.140625 3.03125 8.128906 2.988281 11.214844-.097656 3.085937-3.085938 3.128906-8.078125.097656-11.214844l-118.34375-118.34375 16.6875-16.691406 201.550781 201.554687zm0 0" fill="url(#b)"/><path d="m8 478.09375h32.472656c4.417969 0 8-3.582031 8-8s-3.582031-8-8-8h-32.472656c-4.417969 0-8 3.582031-8 8s3.582031 8 8 8zm0 0" fill="url(#c)"/><path d="m250.34375 104.4375c-3.121094 3.121094-3.121094 8.1875 0 11.3125l120 120c3.140625 3.03125 8.128906 2.988281 11.214844-.097656 3.085937-3.085938 3.128906-8.078125.097656-11.214844l-120-120c-3.125-3.125-8.1875-3.125-11.3125 0zm0 0" fill="url(#d)"/><path d="m400 214.09375c3.234375-.003906 6.152344-1.953125 7.390625-4.941406 1.238281-2.988282.550781-6.429688-1.734375-8.714844l-64-64c-3.140625-3.03125-8.128906-2.988281-11.214844.097656-3.085937 3.085938-3.128906 8.074219-.097656 11.214844l64 64c1.5 1.5 3.535156 2.339844 5.65625 2.34375zm0 0" fill="url(#e)"/></svg>