<svg height="480pt" viewBox="-48 0 480 480" width="480pt" xmlns="http://www.w3.org/2000/svg" xmlns:xlink="http://www.w3.org/1999/xlink"><linearGradient id="a"><stop offset="0" stop-color="#4761ac"/><stop offset="1" stop-color="#54c2ef"/></linearGradient><linearGradient id="b" gradientUnits="userSpaceOnUse" x1="-56" x2="433.048" xlink:href="#a" y1="200" y2="200"/><linearGradient id="c" gradientUnits="userSpaceOnUse" x1="-56" x2="433.048" xlink:href="#a" y1="120" y2="120"/><linearGradient id="d" gradientUnits="userSpaceOnUse" x1="-56" x2="433.048" xlink:href="#a" y1="112" y2="112"/><linearGradient id="e" gradientUnits="userSpaceOnUse" x1="-56" x2="433.048" xlink:href="#a" y1="152" y2="152"/><linearGradient id="f" gradientUnits="userSpaceOnUse" x1="-56" x2="433.048" xlink:href="#a" y1="368" y2="368"/><path d="m136 192h112v16h-112zm0 0" fill="url(#b)"/><path d="m280 0h-176v86.902344c-20.535156 3.230468-35.667969 20.925781-35.667969 41.714844 0 20.789062 15.132813 38.484374 35.667969 41.710937v69.671875h176v-69.671875c20.535156-3.226563 35.667969-20.921875 35.667969-41.710937 0-20.789063-15.132813-38.484376-35.667969-41.714844zm-160 16h144v40h-144zm-35.6875 112.617188c.1875-11.890626 8.214844-22.21875 19.6875-25.335938v50.671875c-11.472656-3.117187-19.5-13.449219-19.6875-25.335937zm215.375 0c-.1875 11.886718-8.214844 22.21875-19.6875 25.335937v-50.671875c11.472656 3.117188 19.5 13.445312 19.6875 25.335938zm-35.6875 95.382812h-144v-152h144zm0 0" fill="url(#c)"/><path d="m144 104h24v16h-24zm0 0" fill="url(#d)"/><path d="m216 104h24v16h-24zm0 0" fill="url(#d)"/><path d="m184 136h16v32h-16zm0 0" fill="url(#e)"/><path d="m32 256c-17.671875 0-32 14.328125-32 32v192h384v-192c0-17.671875-14.328125-32-32-32zm288 16h32c8.835938 0 16 7.164062 16 16v176h-48zm-104.144531 86.808594-24 59.65625-23.6875-59.640625 5.601562-61.761719 12.589844 12.59375c3.125 3.121094 8.1875 3.121094 11.3125 0l12.59375-12.59375zm-3.167969-86.808594-20.6875 20.6875-20.6875-20.6875zm-132.6875 0h68.6875l10.335938 10.335938-7.023438 76.9375c-.113281 1.25.070312 2.511718.535156 3.679687l31.777344 80c1.210938 3.050781 4.164062 5.050781 7.449219 5.046875 3.261719 0 6.195312-1.984375 7.414062-5.007812l32.222657-80c.492187-1.175782.695312-2.449219.601562-3.71875l-6.992188-76.9375 10.304688-10.335938h68.6875v192h-224zm-16 192h-48v-176c0-8.835938 7.164062-16 16-16h32zm0 0" fill="url(#f)"/></svg>